{"title":"San Andreas 2015 CAMRip XviD MP3 Idiocracy","uid":11977525,"size":839701694,"categoryP":"video","categoryS":"movies","magnet":"?xt=urn:btih:f4fda835a8b1ec09f298072297de4ac3f9e26f6c&amp;dn=San+Andreas+2015+CAMRip+XviD+MP3+Idiocracy&amp;tr=udp%3A%2F%2Ftracker.openbittorrent.com%3A80&amp;tr=udp%3A%2F%2Fopen.demonii.com%3A1337&amp;tr=udp%3A%2F%2Ftracker.coppersurfer.tk%3A6969&amp;tr=udp%3A%2F%2Fexodus.desync.com%3A6969","seeders":0,"leechers":1,"uploader":"Satafakap","files":2,"time":1433083517,"description":"Synopsis / Plot\n\nIn the aftermath of a massive earthquake in California, a rescue-chopper pilot makes a dangerous journey across the state in order to rescue his daughter.\n\nDirector: Brad Peyton\nWriters: Carlton Cuse (screenplay), Andre Fabrizio (story)\nStars: Dwayne Johnson, Carla Gugino, Alexandra Daddario  \n &lt;a href=&quot;\nhttp://www.imdb.com/title/tt2126355/&quot; rel=&quot;nofollow&quot; target=&quot;_NEW&quot;&gt;\nhttp://www.imdb.com/title/tt2126355/&lt;/a&gt;\n\nGeneral\n\nComplete name       : San.Andreas.2015.CAMRip.XviD.MP3-Idiocracy.avi\nFormat              : AVI\nFormat/Info         : Audio Video Interleave\nFile size           : 796 MiB\nDuration            : 1h 47mn\nOverall bit rate    : 1 035 Kbps\nWriting application : VirtualDubMod 1.5.10.3 | www.virtualdub-fr.org\nWriting library     : VirtualDubMod build 2550/release\nSource              : San.Andreas.2015.CAM.HQ-Mic.XVID.AC3.Hive-CM8 - Thanks!\nSample              : Yes\n\nVideo\n\nID                                       : 0\nFormat                                   : MPEG-4 Visual\nFormat profile                           : Advanced Simple@L5\nFormat settings, BVOP                    : 2\nFormat settings, QPel                    : No\nFormat settings, GMC                     : No warppoints\nFormat settings, Matrix                  : Default (H.263)\nMuxing mode                              : Packed bitstream\nCodec ID                                 : XVID\nCodec ID/Hint                            : XviD\nDuration                                 : 1h 47mn\nBit rate                                 : 895 Kbps\nWidth                                    : 640 pixels\nHeight                                   : 272 pixels\nDisplay aspect ratio                     : 2.35:1\nFrame rate                               : 29.970 fps\nColor space                              : YUV\nChroma subsampling                       : 4:2:0\nBit depth                                : 8 bits\nScan type                                : Progressive\nCompression mode                         : Lossy\nBits/(Pixel*Frame)                       : 0.172\nStream size                              : 688 MiB (87%)\nWriting library                          : XviD 64\n\nAudio\n\nID                                       : 1\nFormat                                   : MPEG Audio\nFormat version                           : Version 1\nFormat profile                           : Layer 3\nMode                                     : Joint stereo\nCodec ID                                 : 55\nCodec ID/Hint                            : MP3\nDuration                                 : 1h 47mn\nBit rate mode                            : Constant\nBit rate                                 : 128 Kbps\nChannel(s)                               : 2 channels\nSampling rate                            : 48.0 KHz\nCompression mode                         : Lossy\nStream size                              : 98.3 MiB (12%)\nAlignment                                : Split accross interleaves\nInterleave, duration                     : 33 ms (1.00 video frame)\nInterleave, preload duration             : 500 ms\n\n\nScreenshots:\n &lt;a href=&quot;\nhttp://i.imgur.com/L9Q2kFn.jpg&quot; rel=&quot;nofollow&quot; target=&quot;_NEW&quot;&gt;\nhttp://i.imgur.com/L9Q2kFn.jpg&lt;/a&gt;\n &lt;a href=&quot;\nhttp://i.imgur.com/k3iACvO.jpg&quot; rel=&quot;nofollow&quot; target=&quot;_NEW&quot;&gt;\nhttp://i.imgur.com/k3iACvO.jpg&lt;/a&gt;\n &lt;a href=&quot;\nhttp://i.imgur.com/jbR2ycd.jpg&quot; rel=&quot;nofollow&quot; target=&quot;_NEW&quot;&gt;\nhttp://i.imgur.com/jbR2ycd.jpg&lt;/a&gt;\n &lt;a href=&quot;\nhttp://i.imgur.com/PSZVFfD.jpg&quot; rel=&quot;nofollow&quot; target=&quot;_NEW&quot;&gt;\nhttp://i.imgur.com/PSZVFfD.jpg&lt;/a&gt;\n &lt;a href=&quot;\nhttp://i.imgur.com/dQ5yCDE.jpg&quot; rel=&quot;nofollow&quot; target=&quot;_NEW&quot;&gt;\nhttp://i.imgur.com/dQ5yCDE.jpg&lt;/a&gt;","torrent":{"xt":"urn:btih:f4fda835a8b1ec09f298072297de4ac3f9e26f6c","amp;dn":"San+Andreas+2015+CAMRip+XviD+MP3+Idiocracy","amp;tr":["udp%3A%2F%2Ftracker.openbittorrent.com%3A80","udp%3A%2F%2Fopen.demonii.com%3A1337","udp%3A%2F%2Ftracker.coppersurfer.tk%3A6969","udp%3A%2F%2Fexodus.desync.com%3A6969"],"infoHash":"f4fda835a8b1ec09f298072297de4ac3f9e26f6c","infoHashBuffer":{"type":"Buffer","data":[244,253,168,53,168,177,236,9,242,152,7,34,151,222,74,195,249,226,111,108]},"announce":[],"urlList":[]}}